<?xml version="1.0" encoding="UTF-8"?>
<svg id="Layer_1" data-name="Layer 1" xmlns="http://www.w3.org/2000/svg" xmlns:xlink="http://www.w3.org/1999/xlink" viewBox="0 0 232.74 105.13">
  <defs>
    <style>
      .cls-1 {
        fill: url(#linear-gradient);
      }

      .cls-1, .cls-2 {
        stroke-width: 0px;
      }

      .cls-2 {
        fill: #0051de;
      }
    </style>
    <linearGradient id="linear-gradient" x1="229.04" y1="120.21" x2="52.78" y2="41.2" gradientUnits="userSpaceOnUse">
      <stop offset="0" stop-color="#f6ec00"/>
      <stop offset=".51" stop-color="#00d880"/>
      <stop offset="1" stop-color="#25a6ff"/>
    </linearGradient>
  </defs>
  <path class="cls-1" d="m231.49,71.4c0,17.75-14.11,31.86-33.68,31.86h-23.22v-23.27c-3.83,14.25-16.86,24.77-32.3,24.77-7.1,0-13.82-2.19-19.45-6.24-5.63,4.05-12.35,6.24-19.45,6.24-13.34,0-24.88-7.86-30.25-19.19v6.77c-2,2.28-4.37,4.37-7.1,6.19-4.64,3.19-11.56,6.1-20.67,6.1-19.66,0-34.6-15.02-34.6-33.23s14.93-33.23,34.6-33.23c8.83,0,15.66,3.19,20.12,6.37,1.8,1.3,3.37,2.69,4.8,4.19l-8.78,9.46c-.94-.97-1.94-1.87-3.03-2.73-3-2.28-7.37-4.55-13.11-4.55-11.38,0-20.48,9.1-20.48,20.48s9.1,20.48,20.48,20.48c4.64,0,8.01-1.09,10.47-2.46,1.37-.73,2.64-1.55,3.64-2.55v-7.74h-12.21v-10.92h22.81c1.57-16.99,15.9-30.35,33.3-30.35,7.1,0,13.83,2.19,19.46,6.24,5.64-4.05,12.37-6.24,19.45-6.24,15.44,0,28.46,10.52,32.3,24.76v-23.09h23.22c19.57,0,33.68,14.11,33.68,31.86Zm-68.75-.09c0-11.27-9.17-20.45-20.45-20.45-5.17,0-10.03,1.92-13.81,5.4l-19.51,19.51c-1.27,1.27-2.93,1.9-4.6,1.9s-3.33-.63-4.6-1.9c-2.54-2.54-2.54-6.65,0-9.19l13.29-13.29c-2.94-1.58-6.23-2.43-9.68-2.43-11.27,0-20.45,9.17-20.45,20.45s9.17,20.45,20.45,20.45c5.63,0,10.87-2.24,14.76-6.3h0s0-.01.02-.02l18.73-18.73c2.54-2.54,6.66-2.54,9.19,0,2.54,2.54,2.54,6.65,0,9.19l-13.44,13.44c2.93,1.57,6.21,2.41,9.64,2.41,11.27,0,20.45-9.17,20.45-20.45Zm54.64.09c0-10.92-8.19-19.12-19.57-19.12h-9.56v38.24h9.56c11.38,0,19.57-8.19,19.57-19.12Z"/>
  <g>
    <path class="cls-2" d="m19.66,8.73l-4.4,14.31h-5.89c-1.65,0-2.84-1.6-2.35-3.18l3.41-11.12H1.28c-.36,0-.62-.35-.51-.69l.79-2.56c.72-2.32,2.87-3.9,5.3-3.9h22.69l-1.1,3.58h-11.13c-.92,0-1.73.6-2.01,1.48l-.66,2.1h5Z"/>
    <path class="cls-2" d="m59.24,9.7c.26-.84,1.04-1.42,1.92-1.42h7.43c.76,0,1.44-.5,1.67-1.23l.58-1.9h-9.95c-2.26,0-4.25,1.47-4.91,3.63-1.02,3.31,1.46,6.65,4.91,6.65h3.19c1.5,0,2.58,1.45,2.14,2.89h0c-.29.94-1.15,1.58-2.14,1.58h-8.55c-.76,0-1.44.5-1.67,1.23l-.58,1.9h11.12c2.33,0,4.38-1.52,5.07-3.74h0c1.07-3.47-1.53-6.98-5.16-6.98h-3.15c-1.35,0-2.32-1.31-1.92-2.6h0Z"/>
    <path class="cls-2" d="m51.83,14.01c.62-.59,1.1-1.34,1.36-2.21h0c1.02-3.31-1.46-6.65-4.91-6.65h-9.57c-.69,0-1.35.29-1.82.81l-12.87,14.24c-.07.08-.2,0-.17-.1l3.49-11.37h-3.29c-.56,0-1.05.36-1.22.9l-4.12,13.41h6.23c.92-.01,1.8-.4,2.41-1.08l11.93-13.2c.27-.3.66-.47,1.06-.47h7.65c1.35,0,2.32,1.31,1.92,2.6h0c-.26.84-1.04,1.42-1.92,1.42h-3.42l-.96,3.13h3.83c1.5,0,2.58,1.45,2.14,2.89h0c-.29.94-1.16,1.58-2.14,1.58h-7.06c-.11,0-.19-.11-.16-.22l2.81-9.17h-2.6c-.56,0-1.05.36-1.22.9l-2.81,9.17c-.37,1.22.54,2.45,1.81,2.45h9.69c2.36,0,4.44-1.54,5.13-3.79h0c.6-1.94.04-3.9-1.2-5.24Z"/>
  </g>
</svg>