<svg xmlns="http://www.w3.org/2000/svg" width="28" height="29" viewBox="0 0 28 29" fill="none">
  <g clip-path="url(#clip0_8913_3184)">
    <path d="M14 3.02109C17.7406 3.02109 18.1836 3.0375 19.6547 3.10312C21.0219 3.16328 21.7602 3.39297 22.2523 3.58438C22.9031 3.83594 23.3734 4.14219 23.8602 4.62891C24.3523 5.12109 24.6531 5.58594 24.9047 6.23672C25.0961 6.72891 25.3258 7.47266 25.3859 8.83437C25.4516 10.3109 25.468 10.7539 25.468 14.4891C25.468 18.2297 25.4516 18.6727 25.3859 20.1438C25.3258 21.5109 25.0961 22.2492 24.9047 22.7414C24.6531 23.3922 24.3469 23.8625 23.8602 24.3492C23.368 24.8414 22.9031 25.1422 22.2523 25.3938C21.7602 25.5852 21.0164 25.8148 19.6547 25.875C18.1781 25.9406 17.7352 25.957 14 25.957C10.2594 25.957 9.81641 25.9406 8.34531 25.875C6.97813 25.8148 6.23984 25.5852 5.74766 25.3938C5.09688 25.1422 4.62656 24.8359 4.13984 24.3492C3.64766 23.857 3.34687 23.3922 3.09531 22.7414C2.90391 22.2492 2.67422 21.5055 2.61406 20.1438C2.54844 18.6672 2.53203 18.2242 2.53203 14.4891C2.53203 10.7484 2.54844 10.3055 2.61406 8.83437C2.67422 7.46719 2.90391 6.72891 3.09531 6.23672C3.34687 5.58594 3.65313 5.11562 4.13984 4.62891C4.63203 4.13672 5.09688 3.83594 5.74766 3.58438C6.23984 3.39297 6.98359 3.16328 8.34531 3.10312C9.81641 3.0375 10.2594 3.02109 14 3.02109ZM14 0.5C10.1992 0.5 9.72344 0.516406 8.23047 0.582031C6.74297 0.647656 5.72031 0.888281 4.83437 1.23281C3.91016 1.59375 3.12813 2.06953 2.35156 2.85156C1.56953 3.62812 1.09375 4.41016 0.732812 5.32891C0.388281 6.22031 0.147656 7.2375 0.0820313 8.725C0.0164063 10.2234 0 10.6992 0 14.5C0 18.3008 0.0164063 18.7766 0.0820313 20.2695C0.147656 21.757 0.388281 22.7797 0.732812 23.6656C1.09375 24.5898 1.56953 25.3719 2.35156 26.1484C3.12813 26.925 3.91016 27.4062 4.82891 27.7617C5.72031 28.1062 6.7375 28.3469 8.225 28.4125C9.71797 28.4781 10.1937 28.4945 13.9945 28.4945C17.7953 28.4945 18.2711 28.4781 19.7641 28.4125C21.2516 28.3469 22.2742 28.1062 23.1602 27.7617C24.0789 27.4062 24.8609 26.925 25.6375 26.1484C26.4141 25.3719 26.8953 24.5898 27.2508 23.6711C27.5953 22.7797 27.8359 21.7625 27.9016 20.275C27.9672 18.782 27.9836 18.3062 27.9836 14.5055C27.9836 10.7047 27.9672 10.2289 27.9016 8.73594C27.8359 7.24844 27.5953 6.22578 27.2508 5.33984C26.9062 4.41016 26.4305 3.62812 25.6484 2.85156C24.8719 2.075 24.0898 1.59375 23.1711 1.23828C22.2797 0.89375 21.2625 0.653125 19.775 0.5875C18.2766 0.516406 17.8008 0.5 14 0.5Z" fill="#303D4B"/>
    <path d="M14 7.30859C10.0297 7.30859 6.80859 10.5297 6.80859 14.5C6.80859 18.4703 10.0297 21.6914 14 21.6914C17.9703 21.6914 21.1914 18.4703 21.1914 14.5C21.1914 10.5297 17.9703 7.30859 14 7.30859ZM14 19.1648C11.4242 19.1648 9.33516 17.0758 9.33516 14.5C9.33516 11.9242 11.4242 9.83516 14 9.83516C16.5758 9.83516 18.6648 11.9242 18.6648 14.5C18.6648 17.0758 16.5758 19.1648 14 19.1648Z" fill="#303D4B"/>
    <path d="M23.1547 7.02425C23.1547 7.95394 22.4 8.70316 21.4758 8.70316C20.5461 8.70316 19.7969 7.94847 19.7969 7.02425C19.7969 6.09456 20.5516 5.34534 21.4758 5.34534C22.4 5.34534 23.1547 6.10003 23.1547 7.02425Z" fill="#303D4B"/>
  </g>
  <defs>
    <clipPath id="clip0_8913_3184">
      <rect width="28" height="28" fill="white" transform="translate(0 0.5)"/>
    </clipPath>
  </defs>
</svg>