<svg width="182" height="15" viewBox="0 0 182 15" fill="none" xmlns="http://www.w3.org/2000/svg">
<path fill-rule="evenodd" clip-rule="evenodd" d="M21.5453 0.00114962H21.4693H7.87934H7.79862C6.82994 -0.00804732 5.85651 0.0379374 4.92107 0.139104V0.148301C4.13284 0.235671 3.37309 0.566761 2.77004 1.15077C2.54687 1.3623 2.37117 1.60142 2.23822 1.85893L0.88492 4.23174L0.875423 4.25013C0.799448 4.42028 0.813693 4.59042 0.927655 4.70538C1.04162 4.82034 1.26954 4.84793 1.42624 4.84793H7.67991L5.12051 12.932V12.9596C4.98755 13.5528 5.1395 13.9943 5.54787 14.3898C5.93724 14.7668 6.44532 14.9554 6.95815 14.9508H7.09585H11.7446L14.266 6.99082H10.1728C10.1443 6.99082 10.0968 6.98622 10.0779 6.96323C10.0589 6.94024 10.0541 6.90805 10.0684 6.87586L10.7521 5.67106C10.8139 5.5561 10.8898 5.45033 10.9896 5.35836C11.2555 5.10085 11.5926 4.9537 11.9392 4.91691C12.3618 4.86633 12.8034 4.84793 13.2451 4.85253H20.0543L21.5643 0.0609297L21.5738 0.0379374C21.5738 0.0379374 21.569 0.00114962 21.5453 0.00114962ZM38.7963 6.99554H38.7678H34.6224C34.5369 6.99554 34.366 7.01394 34.2805 7.02773C32.9985 7.20707 31.8921 8.25552 31.7496 9.46492C31.7259 9.67185 31.7306 9.86958 31.7639 10.0581C31.8826 10.9686 32.6091 11.617 33.5968 11.6676C33.6917 11.6768 33.7867 11.6814 33.8817 11.6814H35.4344H35.5911C35.99 11.6998 36.2796 11.9619 36.3271 12.3298C36.3413 12.4079 36.3413 12.4861 36.3318 12.5689C36.2701 13.0885 35.7051 13.53 35.1447 13.5576C35.1068 13.5576 35.064 13.5622 35.026 13.5668H30.9851L30.6622 14.5692V14.5738L30.5958 14.7761L30.5673 14.8681L30.553 14.9095C30.5483 14.9279 30.5578 14.9463 30.5815 14.9463H35.1922C35.2777 14.9463 35.4486 14.9279 35.5341 14.9141C36.8162 14.7348 37.9226 13.6863 38.065 12.4769C38.0888 12.27 38.084 12.0722 38.0508 11.8837C37.9321 10.9778 37.2056 10.3248 36.2179 10.2742C36.1134 10.2651 36.0042 10.2605 35.895 10.2651H34.3755H34.2188C33.8247 10.2467 33.5303 9.97995 33.4828 9.61667C33.4685 9.54309 33.4685 9.46032 33.478 9.37755C33.5398 8.85792 34.0289 8.45326 34.5844 8.42107C34.6224 8.42107 34.6651 8.41647 34.7079 8.41187H38.3784L38.7963 7.1105L38.8058 7.08751L38.82 7.04612V7.03233C38.82 7.03233 38.82 6.99554 38.7963 6.99554ZM29.5701 10.8491C29.6603 10.8904 29.7458 10.941 29.8218 11.0008C30.1969 11.2675 30.4581 11.6446 30.5578 12.0906C30.6053 12.2654 30.6242 12.4493 30.6147 12.6425C30.5578 13.8473 29.3612 14.8773 27.9509 14.9417H27.5473H22.5282C22.5045 14.9417 22.4997 14.9049 22.4997 14.9049L22.5092 14.8681L24.3136 9.17522H26.2272L24.8359 13.5576H27.3383L27.3511 13.5562C27.3887 13.5521 27.4229 13.5484 27.4571 13.5484C28.0174 13.5208 28.5824 13.0793 28.6442 12.5597C28.6584 12.4769 28.6537 12.3987 28.6442 12.3206C28.5967 11.9527 28.3403 11.6906 27.9414 11.6722H27.7847H26.0468L26.4931 10.2926H27.5235C27.5663 10.288 27.609 10.2834 27.647 10.2834C28.2026 10.2559 28.9386 9.8144 29.0003 9.29478C29.0098 9.212 29.0098 9.12923 28.9955 9.05566C28.9481 8.69238 28.6584 8.42567 28.2595 8.40727C28.2073 8.40267 28.0316 8.40267 28.0316 8.40267H24.5178L17.5661 14.9509H14.9022C14.8785 14.9509 14.8737 14.9141 14.8737 14.9141L14.9782 14.5784L17.3809 6.99094H19.3373L17.5519 12.6379C17.5566 12.6609 17.5756 12.6746 17.5993 12.6746C17.6017 12.6746 17.6053 12.6735 17.6088 12.6723C17.6124 12.6712 17.616 12.6701 17.6183 12.6701C17.6563 12.6379 17.699 12.5966 17.7464 12.5506L17.7465 12.5505L17.7465 12.5505L17.7893 12.5091C18.9146 11.4515 23.0505 7.56115 23.1122 7.50137C23.6495 6.99854 23.7232 6.99877 24.1128 7.00001L24.1759 7.00014H28.3213C28.4305 6.99554 28.5397 7.00014 28.6442 7.00934C29.6318 7.05992 30.5245 7.7129 30.6432 8.6188C30.6765 8.80734 30.6575 9.06485 30.6147 9.26718C30.4818 9.91557 30.0164 10.4168 29.4276 10.7801L29.5701 10.8491ZM49.257 2.77875H43.9341V4.22726H44.7365V11.4744H43.9341V12.8908H47.182V14.9141H48.5638V4.22726H49.257V2.77875ZM46.0898 4.22726H47.182V5.64359H46.0898V4.22726ZM46.0898 6.95875H47.182V8.39348H46.0898V6.95875ZM46.0898 9.70404H47.182V11.4744H46.0898V9.70404ZM51.2276 9.28098V9.27638L51.2229 9.28098H51.2276ZM51.2276 9.5109V9.28098H52.5952V10.6927C52.5999 11.6078 52.5667 12.3987 52.2438 13.0701C51.4081 14.8129 49.2428 14.9463 49.2428 14.9463V13.7415C49.2428 13.7415 50.2542 13.6449 50.7813 12.969C50.8667 12.8632 50.9285 12.7436 50.9855 12.6103H49.2001V9.26718H50.4014V11.5204H51.2039C51.2364 11.0615 51.2332 10.5491 51.2298 10.0159C51.2287 9.84929 51.2276 9.68062 51.2276 9.5109ZM55.3967 11.1847C55.3967 11.3917 55.2733 11.4928 55.0454 11.4928H54.5373V9.27178H53.184V14.9233H54.5373V12.5781H55.3825C56.3179 12.5781 56.6266 12.2056 56.6266 11.4607V9.26259H55.3967V11.1801V11.1847ZM56.731 3.89158C56.731 3.89158 56.4746 5.3263 55.6627 6.54489H56.7928V7.65312C56.7928 8.38888 56.4889 8.75676 55.5629 8.75676H52.994V7.68071H52.9988V7.54276C53.2077 7.44159 53.844 7.10131 54.2999 6.54489L54.3109 6.53113L54.311 6.53103C54.3414 6.49331 54.3747 6.45194 54.4043 6.40694H52.9988V5.0228C53.165 4.85266 53.3929 4.59054 53.6066 4.23646C53.9912 3.59727 54.0577 2.39707 54.0577 2.39707H55.4062C55.4062 2.39707 55.4347 3.50071 54.6417 4.7147C54.4945 4.94003 54.3426 5.14236 54.1859 5.3171H54.9456C55.24 4.60434 55.4537 3.89158 55.4537 3.89158H56.731ZM54.6275 7.68071H55.2305C55.4537 7.68071 55.5772 7.58415 55.5772 7.37721V6.66905C55.487 6.79781 55.3872 6.92656 55.2828 7.04612C55.0738 7.27605 54.8554 7.49218 54.6275 7.68071ZM52.8136 3.88698H51.5363C51.5363 3.88698 51.3226 4.59974 51.0282 5.3125H50.2685C50.4204 5.13776 50.5771 4.93543 50.7243 4.7101C51.5125 3.49611 51.4888 2.39248 51.4888 2.39248H50.1402C50.1402 2.39248 50.0738 3.59268 49.6891 4.23186C49.4755 4.58594 49.2475 4.84806 49.0813 5.0182V6.40234H50.4869C50.4573 6.44733 50.424 6.48869 50.3936 6.5264L50.3936 6.52645L50.3824 6.54029C49.9266 7.09671 49.2903 7.43699 49.0813 7.53816V8.75216H49.0908H51.636C52.5619 8.75216 52.8658 8.38428 52.8658 7.64852V6.54029H51.7452C52.5572 5.3217 52.8136 3.88698 52.8136 3.88698ZM51.6455 7.37722C51.6455 7.58415 51.522 7.68071 51.2989 7.68071H50.7101C50.938 7.49218 51.1564 7.27605 51.3606 7.04612C51.4603 6.93116 51.5553 6.8116 51.6455 6.68744V7.37722ZM84.9556 9.84659H84.9699L84.9556 9.84199V9.84659ZM84.9556 9.84659H81.8692V8.96369H82.8853C83.7163 8.96369 84.1294 8.628 84.1294 7.95662V5.05499H84.8607V3.68005H84.1294V2.51204H82.6337V3.68005H79.5662V2.51204H78.0704V3.68005H77.3392V5.05499H78.0704V8.95909H80.3307V9.84199H77.23V11.1893H78.8254C78.6782 11.5894 78.493 11.9987 78.2889 12.2792C77.795 12.9414 77.3107 13.2816 77.23 13.3368V14.9187C77.6098 14.744 78.3886 14.3025 79.1626 13.3276C79.7846 12.5459 80.136 11.7366 80.3164 11.1893H80.3259V14.9003H81.8597V11.1893H81.8692C82.0544 11.7366 82.4057 12.5459 83.023 13.3276C83.797 14.3025 84.5758 14.744 84.9556 14.9187V13.3368C84.8749 13.2816 84.3906 12.9414 83.9015 12.2792C83.6926 11.9987 83.5121 11.5894 83.3649 11.1893H84.9556V9.84659ZM82.6384 5.05959H79.5709V5.74016H82.6384V5.05959ZM82.6384 6.95875H79.5709V7.66692H82.306C82.5292 7.66692 82.6384 7.58874 82.6384 7.414V6.95875ZM76.8976 11.9159L76.437 11.617C76.8614 10.2911 76.8446 8.43905 76.834 7.26783V7.26768V7.26721V7.26677V7.26636V7.26597V7.26561V7.26527V7.26495V7.26465V7.26437V7.2641V7.26386V7.26362V7.26339V7.26318V7.26299V7.2628V7.26263V7.26246V7.2623V7.26216V7.26201V7.26188C76.8325 7.09897 76.8311 6.94932 76.8311 6.8162C76.8311 6.08964 76.8359 3.68005 76.8359 3.68005H74.3524V2.40167H72.8329V3.68005H72.1871V5.05499H72.8329V11.0146C72.9029 11.0636 73.4445 11.3995 74.1106 11.8126L74.1125 11.8138L74.1127 11.8139L74.5661 12.0952C74.5234 12.1458 74.4806 12.1964 74.4331 12.247C73.6354 13.0931 72.2204 13.3414 72.2204 13.3414V14.8819C72.2204 14.8819 74.4189 14.5738 75.7769 12.8448C76.4132 13.2357 76.8976 13.5392 76.8976 13.5392V11.9159ZM74.3477 10.2834V5.05959H75.3164C75.3116 6.09424 75.3069 7.45539 75.3069 8.20954C75.3069 9.19361 75.2879 10.0581 75.1359 10.7847L74.3524 10.2834H74.3477ZM162.599 6.70124L162.602 6.69664L162.607 6.70124H162.599ZM162.599 6.70124L159.036 13.1253H165.204C165.299 13.1253 165.356 13.0471 165.356 12.8586L164.61 10.0857H166.491L167.526 13.3414C167.526 13.7691 167.388 14.1186 167.141 14.4405C166.866 14.6796 166.614 14.8037 166.396 14.8037H156.771V13.6541C156.771 13.3874 156.856 13.0793 157.046 12.7298L160.394 6.70124H162.599ZM158.646 2.79254H160.807C160.807 2.79254 160.84 5.04119 159.045 6.60007C157.25 8.15895 155.517 8.34289 155.517 8.34289V6.60007C155.517 6.60007 158.494 6.14942 158.642 2.79254H158.646ZM162.901 2.79254H165.061C165.209 6.14942 168.186 6.60007 168.186 6.60007V8.34289C168.186 8.34289 166.453 8.15895 164.658 6.60007C162.868 5.04119 162.901 2.79254 162.901 2.79254ZM145.626 6.07125C146.604 4.65492 146.514 2.72816 146.514 2.72816V2.71897H141.837V14.8497H143.447V11.9527H144.059C145.208 11.9527 146.557 11.9343 146.557 9.76382C146.557 8.95449 146.258 8.0348 145.033 6.79781C145.227 6.59088 145.431 6.35176 145.626 6.07125ZM145.094 9.61207C145.094 9.99834 145.018 10.4904 144.396 10.4904C144.33 10.4904 144.249 10.4904 144.164 10.4996H143.741H143.698H143.447V4.24106H145.004C144.919 4.63193 144.767 5.07338 144.501 5.53323C144.088 6.24139 143.76 6.63686 143.76 6.63686C143.76 6.63686 144.164 7.32203 144.434 7.77268C144.857 8.46705 145.094 9.12463 145.094 9.61207ZM147.122 13.5346V2.71897H147.127H154.183V7.7175C154.183 8.58661 153.817 9.02347 152.701 9.02347H151.395C151.462 9.54309 151.609 10.2742 151.923 10.987L154.178 9.66265V11.2813C154.064 11.3641 153.262 11.8009 152.644 12.1366C153.366 12.9735 154.178 13.3092 154.178 13.3092V14.8681C154.178 14.8681 153.58 14.7945 151.927 13.369C150.275 11.9435 149.81 10.1685 149.658 9.42353C149.639 9.30857 149.62 9.16142 149.605 9.00967H148.76V12.9552C148.76 13.2127 148.912 13.3322 149.187 13.3322H150.859V14.9003H148.646C147.497 14.9003 147.122 14.4451 147.122 13.5346ZM152.117 7.55656C152.374 7.55656 152.516 7.45999 152.53 7.24386V6.61847H148.755V7.55656H150.598H152.117ZM148.755 5.22053H152.53V4.22726H148.755V5.22053ZM67.3865 3.97435H65.8385V11.5296H67.3865V3.97435ZM68.9915 12.9598V2.53043H70.5679V13.5392C70.5679 14.4497 70.1928 14.9049 69.0437 14.9049H67.6287L67.0589 13.3368H68.5641C68.8395 13.3368 68.9915 13.2127 68.9915 12.9598ZM62.5574 7.78648V7.77268H65.0075V6.32876H62.5574V4.1123C64.6087 3.27078 64.6799 2.40627 64.6799 2.40627H62.7046C61.7739 3.56968 58.3598 3.78581 58.3598 3.78581V4.97222C58.3598 4.97222 59.4804 5.009 61.0141 4.61813V6.32876H58.3598V7.77268H60.8717C60.5488 9.5155 59.4614 11.0284 58.0369 11.6906V13.1713C59.2145 12.739 60.2401 11.9803 61.0141 11.0284V14.9095H62.5621V10.0443C63.7967 11.056 64.8983 11.4239 65.1357 11.4974V10.0719C65.1357 10.0719 64.2335 9.75922 63.5165 9.11084C63.1224 8.75216 62.7853 8.20494 62.5621 7.78648H62.5574ZM112.055 5.94709C112.055 6.14023 112.107 6.29657 112.254 6.29657V6.30577H113.066V7.63013H111.969C111.77 7.63013 111.276 7.57955 111.02 7.43699C110.763 7.29904 110.493 7.08751 110.493 6.38395V4.20887H108.327C108.324 4.26707 108.322 4.3314 108.319 4.4009V4.40108V4.40123C108.297 4.9798 108.261 5.91644 107.753 6.65526C107.134 7.55156 106.469 7.62992 106.196 7.66207C106.144 7.66818 106.107 7.67263 106.086 7.68071V6.34716C106.086 6.34716 106.314 6.25519 106.48 5.99767C106.722 5.6206 106.751 5.04119 106.751 4.59974C106.751 4.37901 106.76 3.89617 106.76 3.89617V2.69597H112.055V5.94709ZM112.658 8.14976H106.504C106.504 8.14976 106.381 10.8812 108.403 12.9046C107.601 13.3184 106.955 13.484 106.091 13.5989V14.9141C107.069 14.7991 108.289 14.5462 109.31 13.9898C109.387 13.949 109.461 13.9051 109.531 13.8631L109.581 13.8335C109.671 13.8886 109.761 13.9391 109.851 13.9897L109.852 13.9898C110.873 14.5462 112.093 14.7991 113.071 14.9141V13.5989C112.212 13.4886 111.561 13.3184 110.763 12.9046C112.781 10.8812 112.663 8.14976 112.663 8.14976H112.658ZM110.877 9.54769C110.74 10.311 110.398 11.2629 109.576 12.0677C108.755 11.2675 108.413 10.3156 108.275 9.54769H110.877ZM101.152 8.28771V2.69597H105.526V13.5668C105.526 14.4589 105.155 14.9049 104.03 14.9049H103.717L103.161 13.369H103.626C103.902 13.369 104.049 13.2495 104.049 13.0011V10.3248H102.639C102.577 11.2905 102.439 12.247 102.15 12.9322C101.627 14.1646 100.925 14.5462 100.25 14.8865V13.2954C100.397 13.1575 100.678 12.8724 100.796 12.6609C101.188 11.956 101.174 10.6577 101.159 9.18849V9.18742C101.156 8.89324 101.152 8.5922 101.152 8.28771ZM102.686 8.83493H104.049V7.25306H102.677C102.677 7.44164 102.679 7.65732 102.681 7.89334V7.89354V7.89375V7.89397V7.8942V7.89444V7.8947V7.89496V7.89524V7.89554V7.89585V7.89619V7.89654L102.681 7.89827C102.683 8.18466 102.686 8.50088 102.686 8.83493ZM102.677 5.76315H104.044V4.18128H102.677V5.76315ZM140.617 5.38148V3.85939H133.579C133.665 3.31677 133.684 2.42466 133.684 2.42466L131.699 2.40627C131.699 2.40627 131.69 3.00867 131.552 3.85939H128.128V5.38148H131.191C131.072 5.75855 130.925 6.14942 130.745 6.5219C129.994 8.08078 128.67 9.2258 128.024 9.72703V11.502C128.446 11.2905 129.244 10.7801 130.607 9.55689C130.645 9.5224 130.682 9.48676 130.719 9.45113C130.755 9.41549 130.792 9.37985 130.83 9.34536V14.9049H132.44V12.27H137.563V12.9644C137.563 13.2173 137.411 13.3414 137.136 13.3414H135.593V13.3506L136.158 14.9095H137.692C138.841 14.9095 139.216 14.4543 139.216 13.5438V6.44373H132.834C132.995 6.07125 133.119 5.71717 133.219 5.39068H140.621L140.617 5.38148ZM137.563 10.918H132.44V10.0397H137.563V10.918ZM137.563 8.71077H132.44V7.83246H137.563V8.71077ZM176.695 13.346H169.819V7.94742H178.105V12.086C178.105 12.9276 177.635 13.346 176.695 13.346ZM176.538 9.36835H171.429V11.9205H176.111C176.386 11.9205 176.538 11.7871 176.538 11.4928V9.36835ZM178.727 5.54702H169.439V6.95875H178.727V5.54702ZM169.435 3.08684L180.176 3.08225H180.18H181.828V13.5392C181.828 14.4497 181.453 14.9049 180.304 14.9049H178.775L178.205 13.3368H179.748C180.024 13.3368 180.176 13.2127 180.176 12.9598V4.57215H169.435V3.08684ZM99.0394 8.628H92.4439V9.69944H99.0394V8.628ZM98.84 7.07372C98.84 7.76349 98.5456 8.10837 97.6624 8.10837L97.6672 8.11297H92.6386V3.2064H94.4857V2.40627H95.3642V3.2064H96.0289V2.40627H96.9216V3.2064H98.84V7.07372ZM97.5342 4.22267H96.9169V5.16995H97.5342V4.22267ZM97.5342 6.13563H96.9169V7.09211H97.2018C97.4155 7.09211 97.5342 7.00934 97.5342 6.8162V6.13563ZM93.8684 7.09211H94.481V6.13103H93.8684V7.09211ZM93.8684 5.16995H94.481V4.22267H93.8684V5.16995ZM95.3594 7.09211H96.0242V6.13103H95.3594V7.09211ZM95.3594 5.16995H96.0242V4.22267H95.3594V5.16995ZM98.5599 11.7412C98.5599 12.333 98.3519 12.673 97.7475 12.7568C97.723 12.9915 97.6275 13.3529 97.33 13.7507H98.9302V14.9187H92.2635V13.7507H94.0536C93.7592 13.3598 93.6642 13.0057 93.6357 12.7758H92.8997V10.1317H98.5599V11.7412ZM96.0717 13.6587C96.0598 13.6748 96.0468 13.6909 96.0337 13.707L96.013 13.7328C96.007 13.7403 96.0012 13.7478 95.9957 13.7553H95.3784C95.3499 13.7231 95.3262 13.6955 95.3024 13.6587C95.1078 13.3552 95.0318 13.0149 95.008 12.7804H96.3661C96.3376 13.0149 96.2664 13.3552 96.0717 13.6587ZM97.2873 11.5296C97.2873 11.7228 97.1733 11.8147 96.9644 11.8147H94.1771V11.0974H97.2873V11.5296ZM91.4942 2.70517V6.35176H91.499H92.3347V8.45326H91.442V13.6265C91.442 14.4772 91.0858 14.9003 89.9985 14.9003H89.8133L89.3622 13.6587H89.7041C89.9652 13.6587 90.1029 13.5714 90.1029 13.3322V12.6149H88.3887V14.9187H87.0687V8.45326H86.2235V6.35176H87.0402V2.70517H91.4942ZM91.0906 7.43699V8.18195H87.4296V7.43699H91.0906ZM89.6423 6.35176H90.2311V5.3079H89.6423V6.35176ZM88.7401 4.39281H90.2264V3.85479H88.2463V6.34716H88.7401V4.39281ZM90.1029 11.5342H88.3887V10.918H90.1029V11.5342ZM90.1029 9.85579H88.3887V9.26718H90.1029V9.85579ZM116.148 2.41087H118.1C118.1 2.41087 118.1 3.78581 117.364 5.34929V14.9187H115.754V7.67612C114.928 8.58661 114.268 9.02347 114.268 9.02347V7.20247C114.268 7.20247 116.148 5.18375 116.148 2.41087ZM118.437 7.10131V8.54063H120.787C120.801 9.59368 120.441 11.0054 119.894 11.7504C119.206 12.6838 118.441 13.2081 118.441 13.2081V14.9049C118.441 14.9049 119.909 14.2105 121.31 12.4447C122.425 11.0376 122.701 9.06485 122.767 8.54523H124.581V12.9644C124.581 13.2173 124.42 13.3414 124.121 13.3414H122.658L123.228 14.9095H124.576C125.806 14.9095 126.21 14.4543 126.21 13.5438V7.1105H118.441L118.437 7.10131ZM125.555 3.32596C125.683 3.90997 125.949 4.54916 126.367 4.95382C126.827 5.40447 127.245 5.45965 127.245 5.45965V6.84379C127.245 6.84379 126.253 6.8116 125.198 5.95169C124.325 5.23893 123.931 4.20427 123.878 3.86399H120.93C120.759 4.25026 120.502 4.69171 120.089 5.14696C119.291 6.02986 118.522 6.56788 117.981 6.84379V5.44586C118.214 5.25272 118.503 4.99521 118.774 4.66872C119.386 3.93756 119.6 2.50744 119.6 2.50744H125.469C125.469 2.50744 125.498 3.06845 125.555 3.32596Z" fill="white"/>
</svg>
