<?xml version="1.0" encoding="utf-8"?>
<!-- Generator: Adobe Illustrator 28.1.0, SVG Export Plug-In . SVG Version: 6.00 Build 0)  -->
<svg version="1.1" id="圖層_1" xmlns="http://www.w3.org/2000/svg" xmlns:xlink="http://www.w3.org/1999/xlink" x="0px" y="0px"
	 viewBox="0 0 20 20" style="enable-background:new 0 0 20 20;" xml:space="preserve">
<style type="text/css">
	.st0{fill:#303D4B;}
</style>
<path class="st0" d="M7.5,14.6c-2,0-3.7-0.7-5.1-2.1C1,11.2,0.3,9.5,0.3,7.5S1,3.8,2.4,2.4C3.8,1,5.5,0.3,7.5,0.3s3.7,0.7,5.1,2.1
	c1.4,1.4,2.1,3.1,2.1,5.1c0,0.8-0.1,1.6-0.4,2.3c-0.3,0.7-0.6,1.3-1,1.9l6.2,6.2c0.2,0.2,0.3,0.5,0.3,0.8c0,0.3-0.1,0.6-0.3,0.8
	c-0.2,0.2-0.5,0.3-0.8,0.3c-0.3,0-0.6-0.1-0.8-0.3l-6.2-6.2c-0.6,0.4-1.2,0.8-1.9,1C9,14.5,8.3,14.6,7.5,14.6z M7.5,12.4
	C8.9,12.4,10,12,11,11c1-1,1.4-2.1,1.4-3.5C12.4,6.1,12,4.9,11,4c-1-1-2.1-1.4-3.5-1.4C6.1,2.5,4.9,3,4,4c-1,1-1.4,2.1-1.4,3.5
	S3,10,4,11C4.9,12,6.1,12.4,7.5,12.4z"/>
</svg>
