<svg width="17" height="16" viewBox="0 0 17 16" fill="none" xmlns="http://www.w3.org/2000/svg">
<path d="M11.1667 4.66667C11.1667 4.48986 11.237 4.32029 11.362 4.19526C11.487 4.07024 11.6566 4 11.8334 4C12.0102 4 12.1798 4.07024 12.3048 4.19526C12.4298 4.32029 12.5001 4.48986 12.5001 4.66667C12.5001 4.84348 12.4298 5.01305 12.3048 5.13807C12.1798 5.2631 12.0102 5.33333 11.8334 5.33333C11.6566 5.33333 11.487 5.2631 11.362 5.13807C11.237 5.01305 11.1667 4.84348 11.1667 4.66667Z" fill="white"/>
<path fill-rule="evenodd" clip-rule="evenodd" d="M8.49992 4.83301C7.66007 4.83301 6.85461 5.16664 6.26075 5.7605C5.66688 6.35437 5.33325 7.15982 5.33325 7.99967C5.33325 8.83953 5.66688 9.64498 6.26075 10.2388C6.85461 10.8327 7.66007 11.1663 8.49992 11.1663C9.33977 11.1663 10.1452 10.8327 10.7391 10.2388C11.333 9.64498 11.6666 8.83953 11.6666 7.99967C11.6666 7.15982 11.333 6.35437 10.7391 5.7605C10.1452 5.16664 9.33977 4.83301 8.49992 4.83301ZM6.33325 7.99967C6.33325 7.42504 6.56153 6.87394 6.96785 6.46761C7.37418 6.06128 7.92528 5.83301 8.49992 5.83301C9.07455 5.83301 9.62565 6.06128 10.032 6.46761C10.4383 6.87394 10.6666 7.42504 10.6666 7.99967C10.6666 8.57431 10.4383 9.12541 10.032 9.53174C9.62565 9.93807 9.07455 10.1663 8.49992 10.1663C7.92528 10.1663 7.37418 9.93807 6.96785 9.53174C6.56153 9.12541 6.33325 8.57431 6.33325 7.99967Z" fill="white"/>
<path fill-rule="evenodd" clip-rule="evenodd" d="M12.0054 1.88861C9.67568 1.63023 7.3245 1.63023 4.99476 1.88861C3.65342 2.03861 2.57009 3.09528 2.41276 4.44328C2.13683 6.80636 2.13683 9.19353 2.41276 11.5566C2.57009 12.9046 3.65276 13.9613 4.99476 14.1113C7.32453 14.3691 9.67565 14.3691 12.0054 14.1113C13.3468 13.9613 14.4301 12.9046 14.5874 11.5566C14.8634 9.19353 14.8634 6.80636 14.5874 4.44328C14.4301 3.09528 13.3474 2.03861 12.0054 1.88861ZM5.10542 2.88195C7.36162 2.63175 9.63856 2.63175 11.8948 2.88195C12.7814 2.98195 13.4914 3.68128 13.5948 4.55995C13.8622 6.84548 13.8622 9.15441 13.5948 11.4399C13.5413 11.87 13.3445 12.2694 13.036 12.5738C12.7275 12.8781 12.3255 13.0696 11.8948 13.1173C9.63856 13.3675 7.36162 13.3675 5.10542 13.1173C4.67472 13.0696 4.27266 12.8781 3.96419 12.5738C3.65573 12.2694 3.45887 11.87 3.40542 11.4399C3.13799 9.15441 3.13799 6.84548 3.40542 4.55995C3.45887 4.12992 3.65573 3.73046 3.96419 3.42611C4.27266 3.12176 4.67472 2.92962 5.10542 2.88195Z" fill="white"/>
</svg>
