<?xml version="1.0" encoding="utf-8"?>
<!-- Generator: Adobe Illustrator 25.2.3, SVG Export Plug-In . SVG Version: 6.00 Build 0)  -->
<svg version="1.1" id="Layer_1" xmlns="http://www.w3.org/2000/svg" xmlns:xlink="http://www.w3.org/1999/xlink" x="0px" y="0px"
	 viewBox="0 0 379 190.8" style="enable-background:new 0 0 379 190.8;" xml:space="preserve">
<style type="text/css">
	.st0{fill:#E73828;}
	.st1{fill:url(#SVGID_1_);}
	.st2{fill:url(#SVGID_2_);}
	.st3{fill:url(#SVGID_3_);}
	.st4{fill:url(#SVGID_4_);}
	.st5{fill:url(#SVGID_5_);}
	.st6{fill:url(#SVGID_6_);}
	.st7{fill:url(#SVGID_7_);}
	.st8{fill:url(#SVGID_8_);}
	.st9{fill:url(#SVGID_9_);}
	.st10{fill:url(#SVGID_10_);}
	.st11{fill:url(#SVGID_11_);}
	.st12{fill:url(#SVGID_12_);}
	.st13{fill:url(#SVGID_13_);}
	.st14{fill:url(#SVGID_14_);}
	.st15{fill:url(#SVGID_15_);}
	.st16{fill:url(#SVGID_16_);}
	.st17{fill:url(#SVGID_17_);}
</style>
<g>
	<g>
		<g>
			<g>
				<path class="st0" d="M231.9,8.8c0-3.5,3.4-6.3,7.6-6.3c4.2,0,7.6,2.8,7.6,6.3c0,3.5-3.4,6.3-7.6,6.3
					C235.3,15.2,231.9,12.3,231.9,8.8z"/>
				<path class="st0" d="M252.9,8.8c0-3.5,3.4-6.3,7.6-6.3c4.2,0,7.6,2.8,7.6,6.3c0,3.5-3.4,6.3-7.6,6.3
					C256.3,15.2,252.9,12.3,252.9,8.8z"/>
				<path class="st0" d="M273.9,8.8c0-3.5,3.4-6.3,7.6-6.3c4.2,0,7.6,2.8,7.6,6.3c0,3.5-3.4,6.3-7.6,6.3
					C277.3,15.2,273.9,12.3,273.9,8.8z"/>
				<path class="st0" d="M294.9,8.8c0-3.5,3.4-6.3,7.6-6.3c4.2,0,7.6,2.8,7.6,6.3c0,3.5-3.4,6.3-7.6,6.3
					C298.3,15.2,294.9,12.3,294.9,8.8z"/>
				<path class="st0" d="M245.8,27.7c0-3.5,3.4-6.3,7.6-6.3c4.2,0,7.6,2.8,7.6,6.3c0,3.5-3.4,6.3-7.6,6.3
					C249.2,34,245.8,31.2,245.8,27.7z"/>
				<path class="st0" d="M266.8,27.7c0-3.5,3.4-6.3,7.6-6.3c4.2,0,7.6,2.8,7.6,6.3c0,3.5-3.4,6.3-7.6,6.3
					C270.2,34,266.8,31.2,266.8,27.7z"/>
				<path class="st0" d="M287.8,27.7c0-3.5,3.4-6.3,7.6-6.3c4.2,0,7.6,2.8,7.6,6.3c0,3.5-3.4,6.3-7.6,6.3
					C291.2,34,287.8,31.2,287.8,27.7z"/>
				<path class="st0" d="M308.8,27.7c0-3.5,3.4-6.3,7.6-6.3c4.2,0,7.6,2.8,7.6,6.3c0,3.5-3.4,6.3-7.6,6.3
					C312.2,34,308.8,31.2,308.8,27.7z"/>
				<path class="st0" d="M259.7,46.5c0-3.5,3.4-6.3,7.6-6.3c4.2,0,7.6,2.8,7.6,6.3c0,3.5-3.4,6.3-7.6,6.3
					C263,52.9,259.7,50,259.7,46.5z"/>
				<path class="st0" d="M280.7,46.5c0-3.5,3.4-6.3,7.6-6.3c4.2,0,7.6,2.8,7.6,6.3c0,3.5-3.4,6.3-7.6,6.3
					C284,52.9,280.7,50,280.7,46.5z"/>
				<path class="st0" d="M301.7,46.5c0-3.5,3.4-6.3,7.6-6.3c4.2,0,7.6,2.8,7.6,6.3c0,3.5-3.4,6.3-7.6,6.3
					C305,52.9,301.7,50,301.7,46.5z"/>
				<path class="st0" d="M322.7,46.5c0-3.5,3.4-6.3,7.6-6.3c4.2,0,7.6,2.8,7.6,6.3c0,3.5-3.4,6.3-7.6,6.3
					C326,52.9,322.7,50,322.7,46.5z"/>
				<path class="st0" d="M294.5,65.4c0-3.5,3.4-6.3,7.6-6.3c4.2,0,7.6,2.8,7.6,6.3c0,3.5-3.4,6.3-7.6,6.3
					C297.9,71.7,294.5,68.9,294.5,65.4z"/>
				<path class="st0" d="M315.5,65.4c0-3.5,3.4-6.3,7.6-6.3c4.2,0,7.6,2.8,7.6,6.3c0,3.5-3.4,6.3-7.6,6.3
					C318.9,71.7,315.5,68.9,315.5,65.4z"/>
				<path class="st0" d="M336.5,65.4c0-3.5,3.4-6.3,7.6-6.3c4.2,0,7.6,2.8,7.6,6.3c0,3.5-3.4,6.3-7.6,6.3
					C339.9,71.7,336.5,68.9,336.5,65.4z"/>
				<path class="st0" d="M287.4,84.2c0-3.5,3.4-6.3,7.6-6.3c4.2,0,7.6,2.8,7.6,6.3c0,3.5-3.4,6.3-7.6,6.3
					C290.8,90.6,287.4,87.7,287.4,84.2z"/>
				<path class="st0" d="M308.4,84.2c0-3.5,3.4-6.3,7.6-6.3c4.2,0,7.6,2.8,7.6,6.3c0,3.5-3.4,6.3-7.6,6.3
					C311.8,90.6,308.4,87.7,308.4,84.2z"/>
				<path class="st0" d="M329.4,84.2c0-3.5,3.4-6.3,7.6-6.3c4.2,0,7.6,2.8,7.6,6.3c0,3.5-3.4,6.3-7.6,6.3
					C332.8,90.6,329.4,87.7,329.4,84.2z"/>
				<path class="st0" d="M350.4,84.2c0-3.5,3.4-6.3,7.6-6.3c4.2,0,7.6,2.8,7.6,6.3c0,3.5-3.4,6.3-7.6,6.3
					C353.8,90.6,350.4,87.7,350.4,84.2z"/>
				<path class="st0" d="M231.9,159.6c0,3.5,3.4,6.3,7.6,6.3c4.2,0,7.6-2.8,7.6-6.3c0-3.5-3.4-6.3-7.6-6.3
					C235.3,153.3,231.9,156.1,231.9,159.6z"/>
				<path class="st0" d="M252.9,159.6c0,3.5,3.4,6.3,7.6,6.3c4.2,0,7.6-2.8,7.6-6.3c0-3.5-3.4-6.3-7.6-6.3
					C256.3,153.3,252.9,156.1,252.9,159.6z"/>
				<path class="st0" d="M273.9,159.6c0,3.5,3.4,6.3,7.6,6.3c4.2,0,7.6-2.8,7.6-6.3c0-3.5-3.4-6.3-7.6-6.3
					C277.3,153.3,273.9,156.1,273.9,159.6z"/>
				<path class="st0" d="M294.9,159.6c0,3.5,3.4,6.3,7.6,6.3c4.2,0,7.6-2.8,7.6-6.3c0-3.5-3.4-6.3-7.6-6.3
					C298.3,153.3,294.9,156.1,294.9,159.6z"/>
				<path class="st0" d="M245.8,140.8c0,3.5,3.4,6.3,7.6,6.3c4.2,0,7.6-2.8,7.6-6.3c0-3.5-3.4-6.3-7.6-6.3
					C249.2,134.4,245.8,137.3,245.8,140.8z"/>
				<path class="st0" d="M266.8,140.8c0,3.5,3.4,6.3,7.6,6.3c4.2,0,7.6-2.8,7.6-6.3c0-3.5-3.4-6.3-7.6-6.3
					C270.2,134.4,266.8,137.3,266.8,140.8z"/>
				<path class="st0" d="M287.8,140.8c0,3.5,3.4,6.3,7.6,6.3c4.2,0,7.6-2.8,7.6-6.3c0-3.5-3.4-6.3-7.6-6.3
					C291.2,134.4,287.8,137.3,287.8,140.8z"/>
				<path class="st0" d="M308.8,140.8c0,3.5,3.4,6.3,7.6,6.3c4.2,0,7.6-2.8,7.6-6.3c0-3.5-3.4-6.3-7.6-6.3
					C312.2,134.4,308.8,137.3,308.8,140.8z"/>
				<path class="st0" d="M280.7,121.9c0,3.5,3.4,6.3,7.6,6.3c4.2,0,7.6-2.8,7.6-6.3c0-3.5-3.4-6.3-7.6-6.3
					C284,115.6,280.7,118.4,280.7,121.9z"/>
				<path class="st0" d="M301.7,121.9c0,3.5,3.4,6.3,7.6,6.3c4.2,0,7.6-2.8,7.6-6.3c0-3.5-3.4-6.3-7.6-6.3
					C305,115.6,301.7,118.4,301.7,121.9z"/>
				<path class="st0" d="M322.7,121.9c0,3.5,3.4,6.3,7.6,6.3c4.2,0,7.6-2.8,7.6-6.3c0-3.5-3.4-6.3-7.6-6.3
					C326,115.6,322.7,118.4,322.7,121.9z"/>
				<path class="st0" d="M294.5,103.1c0,3.5,3.4,6.3,7.6,6.3c4.2,0,7.6-2.8,7.6-6.3c0-3.5-3.4-6.3-7.6-6.3
					C297.9,96.7,294.5,99.6,294.5,103.1z"/>
				<path class="st0" d="M315.5,103.1c0,3.5,3.4,6.3,7.6,6.3c4.2,0,7.6-2.8,7.6-6.3c0-3.5-3.4-6.3-7.6-6.3
					C318.9,96.7,315.5,99.6,315.5,103.1z"/>
				<path class="st0" d="M336.5,103.1c0,3.5,3.4,6.3,7.6,6.3c4.2,0,7.6-2.8,7.6-6.3c0-3.5-3.4-6.3-7.6-6.3
					C339.9,96.7,336.5,99.6,336.5,103.1z"/>
				<linearGradient id="SVGID_1_" gradientUnits="userSpaceOnUse" x1="125.6531" y1="-49.1442" x2="199.0158" y2="33.4713">
					<stop  offset="6.530420e-03" style="stop-color:#009D9C"/>
					<stop  offset="0.5627" style="stop-color:#0075C1"/>
					<stop  offset="1" style="stop-color:#0B308E"/>
				</linearGradient>
				<path class="st1" d="M287.7,60.8h-0.2v0H253c-0.7,0-2.1,0.2-2.8,0.3c-10.6,1.6-19.8,10.5-21,20.9c-0.2,1.8-0.2,3.5,0.1,5.1
					c1,7.8,7,13.4,15.2,13.8c0.8,0.1,1.6,0.1,2.4,0.1v0h12.9c0,0,0,0,0,0c0.4,0,0.9,0,1.3,0c3.3,0.2,5.7,2.4,6.1,5.6
					c0.1,0.6,0.1,1.3,0,2c-0.5,4.4-5.2,8.3-9.9,8.5c-0.3,0-0.7,0.1-1,0.1h-33.6l-2.7,8.6c0,0,0,0,0,0.1l-0.5,1.7l-0.2,0.8
					c0,0,0,0,0,0l-0.1,0.3c-0.1,0.2,0,0.3,0.2,0.3h2.9h0h35.5c0.7,0,2.1-0.2,2.8-0.3c10.6-1.6,19.8-10.5,21-20.9
					c0.2-1.8,0.2-3.5-0.1-5.1c-1-7.8-7-13.4-15.2-13.8c-0.9-0.1-1.8-0.1-2.7-0.1v0H251c0,0,0,0,0,0c-0.4,0-0.9,0-1.3,0
					c-3.3-0.2-5.7-2.4-6.1-5.6c-0.1-0.6-0.1-1.3,0-2c0.5-4.5,4.6-7.9,9.2-8.2c0.3,0,0.7,0,1-0.1h30.5l3.5-11.2l0,0l0.1-0.2l0.1-0.4
					c0,0,0,0,0,0l0-0.1C288,60.9,287.9,60.8,287.7,60.8z"/>
				<linearGradient id="SVGID_2_" gradientUnits="userSpaceOnUse" x1="35.112" y1="31.2613" x2="108.473" y2="113.875">
					<stop  offset="6.530420e-03" style="stop-color:#009D9C"/>
					<stop  offset="0.5627" style="stop-color:#0075C1"/>
					<stop  offset="1" style="stop-color:#0B308E"/>
				</linearGradient>
				<path class="st2" d="M67.8,72.7h-1.3c-0.2,0-0.4,0-0.6-0.2c-0.1-0.1-0.1-0.3-0.1-0.5l0,0l4-7.2c0.3-0.7,0.8-1.3,1.4-1.9
					c1.6-1.6,3.5-2.4,5.5-2.7l0,0c2.5-0.3,5.1-0.4,7.6-0.4l0,0h39.2l4.1-13.4l0.3-1c0.1-0.2,0-0.3-0.2-0.3l-76.3,0l0,0
					c-5.3-0.1-10.6,0.2-15.8,0.8l0,0c-4.2,0.5-8.3,2.3-11.5,5.5c-1.2,1.2-2.1,2.5-2.8,3.9l-7.7,14.4l0,0.1c-0.4,0.9-0.3,1.9,0.3,2.5
					c0.6,0.6,1.8,0.8,2.7,0.8h33.4l-13.7,44.8l0,0.2c-0.7,3.3,0.1,5.7,2.3,7.9c2.1,2.1,4.8,3.1,7.5,3.1h0.7h24.8L89,72.7H67.8z"/>
				<linearGradient id="SVGID_3_" gradientUnits="userSpaceOnUse" x1="67.4125" y1="2.5775" x2="140.7738" y2="85.1915">
					<stop  offset="6.530420e-03" style="stop-color:#009D9C"/>
					<stop  offset="0.5627" style="stop-color:#0075C1"/>
					<stop  offset="1" style="stop-color:#0B308E"/>
				</linearGradient>
				<path class="st3" d="M213.1,95.2c-0.6-0.5-1.3-0.9-2.1-1.3c-0.4-0.2-0.8-0.4-1.2-0.6c4.9-3.1,8.8-7.4,9.9-13
					c0.3-1.7,0.5-4,0.2-5.6c-1-7.8-8.4-13.4-16.6-13.8c-0.9-0.1-2.7-0.1-2.7-0.1l-34.3,0c-4.4,0-4.9-0.2-7.4,2.5
					c-0.5,0.6-0.9,1.1-0.9,1.1l-50.7,53.7c0,0-0.4,0.3-0.7,0.3c-0.4,0-0.7-0.3-0.7-0.7l13.7-45H105l-16.2,53.1c0,0,0,0,0,0l-0.9,2.9
					c-0.1,0.2,0,0.3,0.2,0.3h0.6h27.8l49.9-56.2h31.7c0,0,1.5,0,1.9,0.1c3.3,0.2,5.7,2.4,6.1,5.6c0.1,0.6,0.1,1.3,0,2
					c-0.5,4.4-6.6,8.2-11.2,8.5c-0.3,0-0.7,0-1,0.1h-8.5l-3.7,11.9h14.4c0,0,0,0,0,0c0.4,0,0.9,0,1.3,0c3.3,0.2,5.5,2.4,5.8,5.6
					c0.1,0.6,0.1,1.3,0,2c-0.5,4.4-5.2,8.3-9.9,8.5c-0.3,0-0.7,0-1,0.1h-20.8l11.5-37.6h-15.9l-15,48.8l0,0l-0.1,0.3
					c-0.1,0.2,0,0.3,0.2,0.3h0.3l0,0h41.4c0.1,0,2.9,0,3.4,0c11.7-0.6,21.6-9.4,22.1-19.7c0.1-1.7-0.1-3.2-0.5-4.7
					C218.4,100.7,216.2,97.5,213.1,95.2z"/>
			</g>
		</g>
	</g>
	<g>
		<path d="M56.5,172.3l-4.9,1.3c1.3,3.4,2.3,6.9,3.2,10.4l5-1.9C59,179.1,57.8,175.9,56.5,172.3z"/>
		<linearGradient id="SVGID_4_" gradientUnits="userSpaceOnUse" x1="29.5487" y1="178.163" x2="234.7326" y2="178.163">
			<stop  offset="0" style="stop-color:#505050"/>
			<stop  offset="0.367" style="stop-color:#2F2F2F"/>
			<stop  offset="0.9951" style="stop-color:#040404"/>
		</linearGradient>
		<path class="st4" d="M56.5,172.3l-4.9,1.3c1.3,3.4,2.3,6.9,3.2,10.4l5-1.9C59,179.1,57.8,175.9,56.5,172.3z"/>
		<path d="M38,172.7c-1,4.6-2.7,9-5.1,13.1l5,3.1c2.4-4.3,4.2-9.3,5.5-15.1L38,172.7z"/>
		<linearGradient id="SVGID_5_" gradientUnits="userSpaceOnUse" x1="29.5487" y1="180.7908" x2="234.7326" y2="180.7908">
			<stop  offset="0" style="stop-color:#505050"/>
			<stop  offset="0.367" style="stop-color:#2F2F2F"/>
			<stop  offset="0.9951" style="stop-color:#040404"/>
		</linearGradient>
		<path class="st5" d="M38,172.7c-1,4.6-2.7,9-5.1,13.1l5,3.1c2.4-4.3,4.2-9.3,5.5-15.1L38,172.7z"/>
		<path d="M68.9,146.3c5.9-0.3,11.3-1.3,16.1-2.9l-2.9-5.4c-5.6,2.2-11.9,3.3-19,3.4v24.8c-0.2,8.4-2,15-5.2,19.7l4.3,4.5
			c4.2-6.1,6.4-14.1,6.7-24.2v-5.4h6.2v29.8H81v-29.8h5.3v-5.7H68.9V146.3z"/>
		<linearGradient id="SVGID_6_" gradientUnits="userSpaceOnUse" x1="29.5487" y1="164.257" x2="234.7326" y2="164.257">
			<stop  offset="0" style="stop-color:#505050"/>
			<stop  offset="0.367" style="stop-color:#2F2F2F"/>
			<stop  offset="0.9951" style="stop-color:#040404"/>
		</linearGradient>
		<path class="st6" d="M68.9,146.3c5.9-0.3,11.3-1.3,16.1-2.9l-2.9-5.4c-5.6,2.2-11.9,3.3-19,3.4v24.8c-0.2,8.4-2,15-5.2,19.7
			l4.3,4.5c4.2-6.1,6.4-14.1,6.7-24.2v-5.4h6.2v29.8H81v-29.8h5.3v-5.7H68.9V146.3z"/>
		<path d="M60,165h-9.4v-4.6H61v-5.4h-5.5c0.7-1.7,1.4-3.4,2.1-5.4l-5.3-1.9c-0.6,2.5-1.4,4.9-2.2,7.3h-5c-0.8-2.8-1.6-5.2-2.5-7.3
			l-5.3,2c0.9,1.6,1.7,3.4,2.4,5.3h-5.8v5.4h10.9v4.6h-9.9v5.4h9.9V184c0,1.1-0.7,1.7-1.9,1.7c-0.7,0-1.5-0.2-2.3-0.4l1.3,5.5h3
			c3.9,0,5.9-1.8,5.9-5.3v-15H60V165z"/>
		<linearGradient id="SVGID_7_" gradientUnits="userSpaceOnUse" x1="29.5487" y1="169.197" x2="234.7326" y2="169.197">
			<stop  offset="0" style="stop-color:#505050"/>
			<stop  offset="0.367" style="stop-color:#2F2F2F"/>
			<stop  offset="0.9951" style="stop-color:#040404"/>
		</linearGradient>
		<path class="st7" d="M60,165h-9.4v-4.6H61v-5.4h-5.5c0.7-1.7,1.4-3.4,2.1-5.4l-5.3-1.9c-0.6,2.5-1.4,4.9-2.2,7.3h-5
			c-0.8-2.8-1.6-5.2-2.5-7.3l-5.3,2c0.9,1.6,1.7,3.4,2.4,5.3h-5.8v5.4h10.9v4.6h-9.9v5.4h9.9V184c0,1.1-0.7,1.7-1.9,1.7
			c-0.7,0-1.5-0.2-2.3-0.4l1.3,5.5h3c3.9,0,5.9-1.8,5.9-5.3v-15H60V165z"/>
		<path d="M60.6,142H50.2c-0.7-1.8-1.3-3.5-2-5l-6.2,1c0.8,1.2,1.5,2.5,2.2,3.9h-9.9v5.5h26.2V142z"/>
		<linearGradient id="SVGID_8_" gradientUnits="userSpaceOnUse" x1="29.5487" y1="142.2403" x2="234.7326" y2="142.2403">
			<stop  offset="0" style="stop-color:#505050"/>
			<stop  offset="0.367" style="stop-color:#2F2F2F"/>
			<stop  offset="0.9951" style="stop-color:#040404"/>
		</linearGradient>
		<path class="st8" d="M60.6,142H50.2c-0.7-1.8-1.3-3.5-2-5l-6.2,1c0.8,1.2,1.5,2.5,2.2,3.9h-9.9v5.5h26.2V142z"/>
		<path d="M135,177.7c-1.5,0.1-3,0.3-4.6,0.4v-13.9h5v-5h-30.8v5h4.1v15.2c-1.4,0-2.9,0.1-4.4,0.2l0.7,5.2c7.1-0.3,13.8-0.7,20-1.3
			v5.3h5.4v-5.8l4.6-0.5V177.7z M125,178.5c-3.4,0.2-7.1,0.4-11,0.6v-2.5h11V178.5z M125,172.6h-11v-2.2h11V172.6z M125,166.4h-11
			v-2.1h11V166.4z"/>
		<linearGradient id="SVGID_9_" gradientUnits="userSpaceOnUse" x1="32.8005" y1="174.0518" x2="237.9845" y2="174.0518">
			<stop  offset="0" style="stop-color:#505050"/>
			<stop  offset="0.367" style="stop-color:#2F2F2F"/>
			<stop  offset="0.9951" style="stop-color:#040404"/>
		</linearGradient>
		<path class="st9" d="M135,177.7c-1.5,0.1-3,0.3-4.6,0.4v-13.9h5v-5h-30.8v5h4.1v15.2c-1.4,0-2.9,0.1-4.4,0.2l0.7,5.2
			c7.1-0.3,13.8-0.7,20-1.3v5.3h5.4v-5.8l4.6-0.5V177.7z M125,178.5c-3.4,0.2-7.1,0.4-11,0.6v-2.5h11V178.5z M125,172.6h-11v-2.2h11
			V172.6z M125,166.4h-11v-2.1h11V166.4z"/>
		<path d="M122.1,156.9h16.7v26c0,1.4-0.7,2.1-1.9,2.1c-1.4,0-3-0.1-4.7-0.3l1.4,5.3c1.8,0.1,3.6,0.2,5.4,0.2c3.8,0,5.8-1.8,5.8-5.5
			v-45.5h-22.6V156.9z M128.1,143.8h10.7v2.2h-10.7V143.8z M128.1,150h10.7v2.6h-10.7V150z"/>
		<linearGradient id="SVGID_10_" gradientUnits="userSpaceOnUse" x1="32.8005" y1="164.8278" x2="237.9845" y2="164.8278">
			<stop  offset="0" style="stop-color:#505050"/>
			<stop  offset="0.367" style="stop-color:#2F2F2F"/>
			<stop  offset="0.9951" style="stop-color:#040404"/>
		</linearGradient>
		<path class="st10" d="M122.1,156.9h16.7v26c0,1.4-0.7,2.1-1.9,2.1c-1.4,0-3-0.1-4.7-0.3l1.4,5.3c1.8,0.1,3.6,0.2,5.4,0.2
			c3.8,0,5.8-1.8,5.8-5.5v-45.5h-22.6V156.9z M128.1,143.8h10.7v2.2h-10.7V143.8z M128.1,150h10.7v2.6h-10.7V150z"/>
		<path d="M118.2,139.4H95.4v51.1h5.9v-33.5h16.9V139.4z M112.3,152.5h-11V150h11V152.5z M112.3,146h-11v-2.3h11V146z"/>
		<linearGradient id="SVGID_11_" gradientUnits="userSpaceOnUse" x1="32.8005" y1="164.8849" x2="237.9845" y2="164.8849">
			<stop  offset="0" style="stop-color:#505050"/>
			<stop  offset="0.367" style="stop-color:#2F2F2F"/>
			<stop  offset="0.9951" style="stop-color:#040404"/>
		</linearGradient>
		<path class="st11" d="M118.2,139.4H95.4v51.1h5.9v-33.5h16.9V139.4z M112.3,152.5h-11V150h11V152.5z M112.3,146h-11v-2.3h11V146z"
			/>
		<path d="M161.7,158.5c-2.1,3.7-3.8,6.3-5.1,7.9c-0.7,0.7-1.5,1.2-2.5,1.5l1.4,4.9c4-0.5,8.2-1.4,12.7-2.7l0.5,2.5l4.4-1.1
			c-0.8-4.4-1.8-8.3-2.8-11.7l-4.2,1.4c0.5,1.5,0.9,3.1,1.3,4.8c-1.9,0.5-3.8,0.9-5.7,1.2c3-3.8,6.6-10,11.1-18.5l-5.1-1.9
			c-1.1,2.4-2.2,4.6-3.3,6.7l-4.2,0.7c2.4-3.8,4.8-8.7,7.1-14.8l-5.4-2.2c-1.5,5.4-3.4,10.5-5.5,15c-0.7,1-1.5,1.7-2.4,2.1l1.4,5.2
			C157.5,159.2,159.6,158.8,161.7,158.5z"/>
		<linearGradient id="SVGID_12_" gradientUnits="userSpaceOnUse" x1="36.0524" y1="155.0048" x2="241.2363" y2="155.0048">
			<stop  offset="0" style="stop-color:#505050"/>
			<stop  offset="0.367" style="stop-color:#2F2F2F"/>
			<stop  offset="0.9951" style="stop-color:#040404"/>
		</linearGradient>
		<path class="st12" d="M161.7,158.5c-2.1,3.7-3.8,6.3-5.1,7.9c-0.7,0.7-1.5,1.2-2.5,1.5l1.4,4.9c4-0.5,8.2-1.4,12.7-2.7l0.5,2.5
			l4.4-1.1c-0.8-4.4-1.8-8.3-2.8-11.7l-4.2,1.4c0.5,1.5,0.9,3.1,1.3,4.8c-1.9,0.5-3.8,0.9-5.7,1.2c3-3.8,6.6-10,11.1-18.5l-5.1-1.9
			c-1.1,2.4-2.2,4.6-3.3,6.7l-4.2,0.7c2.4-3.8,4.8-8.7,7.1-14.8l-5.4-2.2c-1.5,5.4-3.4,10.5-5.5,15c-0.7,1-1.5,1.7-2.4,2.1l1.4,5.2
			C157.5,159.2,159.6,158.8,161.7,158.5z"/>
		<path d="M197.2,180.2v-4.5h-9.5v-6.3h10.5v-5h-6c-0.5-1.9-0.9-3.6-1.3-5.1l-5,0.8c0.6,1.3,1.1,2.7,1.5,4.3h-6.9v5h2.4v10.7H197.2z
			"/>
		<linearGradient id="SVGID_13_" gradientUnits="userSpaceOnUse" x1="36.0524" y1="169.825" x2="241.2363" y2="169.825">
			<stop  offset="0" style="stop-color:#505050"/>
			<stop  offset="0.367" style="stop-color:#2F2F2F"/>
			<stop  offset="0.9951" style="stop-color:#040404"/>
		</linearGradient>
		<path class="st13" d="M197.2,180.2v-4.5h-9.5v-6.3h10.5v-5h-6c-0.5-1.9-0.9-3.6-1.3-5.1l-5,0.8c0.6,1.3,1.1,2.7,1.5,4.3h-6.9v5
			h2.4v10.7H197.2z"/>
		<path d="M173.8,182.1c-0.9-3.1-1.8-6.1-3-8.9l-3.8,1.3c1,2.9,1.9,6.3,2.7,10.1l4.1-1.9v7.3h5.4v-45.3h20.4v37.8c0,1.3-0.5,2-1.5,2
			l-7-0.2l1.5,5.3h7.2c3.5,0,5.3-1.9,5.3-5.8v-44.3h-31.3V182.1z"/>
		<linearGradient id="SVGID_14_" gradientUnits="userSpaceOnUse" x1="36.0524" y1="164.742" x2="241.2363" y2="164.742">
			<stop  offset="0" style="stop-color:#505050"/>
			<stop  offset="0.367" style="stop-color:#2F2F2F"/>
			<stop  offset="0.9951" style="stop-color:#040404"/>
		</linearGradient>
		<path class="st14" d="M173.8,182.1c-0.9-3.1-1.8-6.1-3-8.9l-3.8,1.3c1,2.9,1.9,6.3,2.7,10.1l4.1-1.9v7.3h5.4v-45.3h20.4v37.8
			c0,1.3-0.5,2-1.5,2l-7-0.2l1.5,5.3h7.2c3.5,0,5.3-1.9,5.3-5.8v-44.3h-31.3V182.1z"/>
		<path d="M161.3,175.7c0.6,3.4,1.1,7.4,1.5,11.8l4.7-1.1c-0.6-4.2-1.4-8.1-2.2-11.7L161.3,175.7z"/>
		<linearGradient id="SVGID_15_" gradientUnits="userSpaceOnUse" x1="36.0524" y1="181.1898" x2="241.2363" y2="181.1898">
			<stop  offset="0" style="stop-color:#505050"/>
			<stop  offset="0.367" style="stop-color:#2F2F2F"/>
			<stop  offset="0.9951" style="stop-color:#040404"/>
		</linearGradient>
		<path class="st15" d="M161.3,175.7c0.6,3.4,1.1,7.4,1.5,11.8l4.7-1.1c-0.6-4.2-1.4-8.1-2.2-11.7L161.3,175.7z"/>
		<path d="M153.6,188.2l4.7,1.5c1-4.1,1.6-8.7,1.8-14l-4.6-0.6C155.3,180,154.7,184.4,153.6,188.2z"/>
		<linearGradient id="SVGID_16_" gradientUnits="userSpaceOnUse" x1="36.0524" y1="182.418" x2="241.2363" y2="182.418">
			<stop  offset="0" style="stop-color:#505050"/>
			<stop  offset="0.367" style="stop-color:#2F2F2F"/>
			<stop  offset="0.9951" style="stop-color:#040404"/>
		</linearGradient>
		<path class="st16" d="M153.6,188.2l4.7,1.5c1-4.1,1.6-8.7,1.8-14l-4.6-0.6C155.3,180,154.7,184.4,153.6,188.2z"/>
		<path d="M180.3,158.9h18.2v-5h-3.9c0.9-2.2,1.6-4.5,2.1-7l-4.8-0.7c-0.3,2.6-0.9,5.1-1.7,7.7h-4.5l2.7-1.3
			c-0.8-2.2-1.7-4.2-2.7-6.2l-4.1,1.4c0.9,1.7,1.8,3.7,2.6,6h-3.9V158.9z"/>
		<linearGradient id="SVGID_17_" gradientUnits="userSpaceOnUse" x1="36.0524" y1="152.5488" x2="241.2363" y2="152.5488">
			<stop  offset="0" style="stop-color:#505050"/>
			<stop  offset="0.367" style="stop-color:#2F2F2F"/>
			<stop  offset="0.9951" style="stop-color:#040404"/>
		</linearGradient>
		<path class="st17" d="M180.3,158.9h18.2v-5h-3.9c0.9-2.2,1.6-4.5,2.1-7l-4.8-0.7c-0.3,2.6-0.9,5.1-1.7,7.7h-4.5l2.7-1.3
			c-0.8-2.2-1.7-4.2-2.7-6.2l-4.1,1.4c0.9,1.7,1.8,3.7,2.6,6h-3.9V158.9z"/>
	</g>
</g>
</svg>
