<svg width="28" height="28" viewBox="0 0 28 28" fill="none" xmlns="http://www.w3.org/2000/svg">
<rect width="28" height="28" rx="8" fill="#303D4B"/>
<g clip-path="url(#clip0_9118_436)">
<path d="M22.0652 9.92991C21.9702 9.5725 21.783 9.2463 21.5224 8.98397C21.2617 8.72163 20.9367 8.53236 20.5799 8.43509C19.2665 8.08191 14.0165 8.08191 14.0165 8.08191C14.0165 8.08191 8.76646 8.08191 7.453 8.43509C7.09621 8.53236 6.77122 8.72163 6.51056 8.98397C6.2499 9.2463 6.06271 9.5725 5.96773 9.92991C5.61646 11.2491 5.61646 14.0001 5.61646 14.0001C5.61646 14.0001 5.61646 16.7511 5.96773 18.0703C6.06271 18.4277 6.2499 18.7539 6.51056 19.0162C6.77122 19.2785 7.09621 19.4678 7.453 19.5651C8.76646 19.9183 14.0165 19.9183 14.0165 19.9183C14.0165 19.9183 19.2665 19.9183 20.5799 19.5651C20.9367 19.4678 21.2617 19.2785 21.5224 19.0162C21.783 18.7539 21.9702 18.4277 22.0652 18.0703C22.4165 16.7511 22.4165 14.0001 22.4165 14.0001C22.4165 14.0001 22.4165 11.2491 22.0652 9.92991Z" fill="white"/>
<path d="M12.2983 16.4982V11.5021L16.6892 14.0001L12.2983 16.4982Z" fill="#303D4B"/>
</g>
<defs>
<clipPath id="clip0_9118_436">
<rect width="16.8" height="16.8" fill="white" transform="translate(5.59985 5.6001)"/>
</clipPath>
</defs>
</svg>
